<svg width="58" height="86" viewBox="0 0 58 86" fill="none" xmlns="http://www.w3.org/2000/svg">
<path d="M0 0H48C53.5229 0 58 4.47715 58 10V76C58 81.5229 53.5228 86 48 86H0V0Z" fill="#3744BD"/>
<rect width="22" height="22" transform="translate(29 32)" fill="#3744BD"/>
<path fill-rule="evenodd" clip-rule="evenodd" d="M38.166 47.5833C38.166 46.5708 38.9868 45.75 39.9993 45.75C41.0119 45.75 41.8327 46.5708 41.8327 47.5833C41.8327 48.5959 41.0119 49.4167 39.9993 49.4167C38.9868 49.4167 38.166 48.5959 38.166 47.5833Z" fill="white"/>
<path fill-rule="evenodd" clip-rule="evenodd" d="M38.166 37.4998C38.166 36.4873 38.9868 35.6665 39.9993 35.6665C41.0119 35.6665 41.8327 36.4873 41.8327 37.4998C41.8327 38.5124 41.0119 39.3332 39.9993 39.3332C38.9868 39.3332 38.166 38.5124 38.166 37.4998Z" fill="white"/>
</svg>
