<svg width="45" height="45" viewBox="0 0 45 45" fill="none" xmlns="http://www.w3.org/2000/svg">
<circle cx="22.5" cy="22.5" r="22.5" fill="#F9FAFC"/>
<path fill-rule="evenodd" clip-rule="evenodd" d="M28.0303 16.9697C28.3232 17.2626 28.3232 17.7374 28.0303 18.0303L19.0303 27.0303C18.7374 27.3232 18.2626 27.3232 17.9697 27.0303C17.6768 26.7374 17.6768 26.2626 17.9697 25.9697L26.9697 16.9697C27.2626 16.6768 27.7374 16.6768 28.0303 16.9697Z" fill="#C4CACB"/>
<path fill-rule="evenodd" clip-rule="evenodd" d="M17.9697 16.9697C18.2626 16.6768 18.7374 16.6768 19.0303 16.9697L28.0303 25.9697C28.3232 26.2626 28.3232 26.7374 28.0303 27.0303C27.7374 27.3232 27.2626 27.3232 26.9697 27.0303L17.9697 18.0303C17.6768 17.7374 17.6768 17.2626 17.9697 16.9697Z" fill="#C4CACB"/>
</svg>
