<svg width="96" height="96" viewBox="0 0 96 96" fill="none" xmlns="http://www.w3.org/2000/svg">
<g filter="url(#filter0_d)">
<circle cx="48" cy="41" r="33" fill="white"/>
<path fill-rule="evenodd" clip-rule="evenodd" d="M48 33C48.5523 33 49 33.4477 49 34V48C49 48.5523 48.5523 49 48 49C47.4477 49 47 48.5523 47 48V34C47 33.4477 47.4477 33 48 33Z" fill="#3744BD"/>
<path fill-rule="evenodd" clip-rule="evenodd" d="M40 41C40 40.4477 40.4477 40 41 40H55C55.5523 40 56 40.4477 56 41C56 41.5523 55.5523 42 55 42H41C40.4477 42 40 41.5523 40 41Z" fill="#3744BD"/>
</g>
<defs>
<filter id="filter0_d" x="0" y="0" width="96" height="96" filterUnits="userSpaceOnUse" color-interpolation-filters="sRGB">
<feFlood flood-opacity="0" result="BackgroundImageFix"/>
<feColorMatrix in="SourceAlpha" type="matrix" values="0 0 0 0 0 0 0 0 0 0 0 0 0 0 0 0 0 0 127 0"/>
<feOffset dy="7"/>
<feGaussianBlur stdDeviation="7.5"/>
<feColorMatrix type="matrix" values="0 0 0 0 0.579358 0 0 0 0 0.611235 0 0 0 0 0.629167 0 0 0 0.13 0"/>
<feBlend mode="normal" in2="BackgroundImageFix" result="effect1_dropShadow"/>
<feBlend mode="normal" in="SourceGraphic" in2="effect1_dropShadow" result="shape"/>
</filter>
</defs>
</svg>
